<?xml version="1.0" standalone="no"?>
<!DOCTYPE svg PUBLIC "-//W3C//DTD SVG 20010904//EN"
 "http://www.w3.org/TR/2001/REC-SVG-20010904/DTD/svg10.dtd">
<svg version="1.0" xmlns="http://www.w3.org/2000/svg"
 width="512.000000pt" height="512.000000pt" viewBox="0 0 512.000000 512.000000"
 preserveAspectRatio="xMidYMid meet">
<metadata>
Created by potrace 1.11, written by Peter Selinger 2001-2013
</metadata>
<g transform="translate(0.000000,512.000000) scale(0.100000,-0.100000)"
fill="#000000" stroke="none">
<path d="M270 2536 l0 -1216 603 0 c647 0 707 4 907 55 169 42 270 98 396 218
166 157 262 352 305 622 20 124 17 516 -4 635 -38 206 -90 346 -179 481 -137
208 -320 331 -584 390 -96 22 -120 23 -771 26 l-673 4 0 -1215z m1150 639
c211 -66 287 -177 321 -467 14 -125 6 -393 -16 -492 -29 -134 -90 -235 -171
-282 -75 -44 -135 -55 -341 -61 l-193 -6 0 668 0 668 173 -6 c123 -3 188 -10
227 -22z"/>
<path d="M2900 2536 l0 -1216 375 0 375 0 0 455 0 455 258 0 c374 0 508 21
680 106 169 83 290 234 344 431 29 106 31 362 4 468 -70 271 -232 420 -541
496 -37 9 -245 13 -772 16 l-723 4 0 -1215z m1158 700 c60 -19 117 -70 147
-131 28 -57 27 -176 -2 -230 -61 -114 -169 -155 -415 -155 l-138 0 0 271 0
271 178 -5 c128 -3 192 -9 230 -21z"/>
</g>
</svg>
